<svg width="16" height="17" viewBox="0 0 16 17" fill="none" xmlns="http://www.w3.org/2000/svg">
<path d="M3.48 5.98C3.43356 6.02638 3.39671 6.08145 3.37157 6.14208C3.34644 6.20271 3.3335 6.2677 3.3335 6.33333C3.3335 6.39897 3.34644 6.46395 3.37157 6.52458C3.39671 6.58521 3.43356 6.64029 3.48 6.68667L7.64667 10.8533C7.69304 10.8998 7.74812 10.9366 7.80875 10.9618C7.86938 10.9869 7.93437 10.9998 8 10.9998C8.06563 10.9998 8.13062 10.9869 8.19125 10.9618C8.25188 10.9366 8.30696 10.8998 8.35333 10.8533L12.52 6.68667C12.5664 6.64026 12.6032 6.58518 12.6283 6.52455C12.6534 6.46393 12.6664 6.39895 12.6664 6.33333C12.6664 6.26771 12.6534 6.20273 12.6283 6.14211C12.6032 6.08148 12.5664 6.0264 12.52 5.98C12.4736 5.9336 12.4185 5.89679 12.3579 5.87168C12.2973 5.84657 12.2323 5.83364 12.1667 5.83364C12.101 5.83364 12.0361 5.84657 11.9754 5.87168C11.9148 5.89679 11.8597 5.9336 11.8133 5.98L8 9.79267L4.18667 5.98C4.14029 5.93356 4.08521 5.89671 4.02458 5.87157C3.96395 5.84643 3.89897 5.8335 3.83333 5.8335C3.7677 5.8335 3.70271 5.84643 3.64208 5.87157C3.58145 5.89671 3.52638 5.93356 3.48 5.98Z" fill="#191919"/>
</svg>
