<svg width="24" height="24" viewBox="0 0 24 24" fill="none" xmlns="http://www.w3.org/2000/svg">
<path d="M5.72007 5.72C5.8607 5.57955 6.05132 5.50066 6.25007 5.50066C6.44882 5.50066 6.63945 5.57955 6.78007 5.72L12.0001 10.94L17.2201 5.72C17.3117 5.62127 17.4283 5.5491 17.5576 5.51109C17.6868 5.47307 17.824 5.47062 17.9545 5.504C18.085 5.53737 18.2041 5.60533 18.2992 5.70072C18.3944 5.7961 18.462 5.91539 18.4951 6.046C18.5285 6.17637 18.5262 6.31335 18.4883 6.44251C18.4505 6.57167 18.3786 6.68826 18.2801 6.78L13.0601 12L18.2801 17.22C18.3788 17.3117 18.451 17.4283 18.489 17.5575C18.527 17.6868 18.5294 17.8239 18.4961 17.9544C18.4627 18.0849 18.3947 18.204 18.2994 18.2992C18.204 18.3943 18.0847 18.462 17.9541 18.495C17.8237 18.5284 17.6867 18.5261 17.5576 18.4882C17.4284 18.4504 17.3118 18.3785 17.2201 18.28L12.0001 13.06L6.78007 18.28C6.63781 18.4124 6.44976 18.4845 6.25544 18.4812C6.06113 18.4778 5.87568 18.3992 5.73807 18.262C5.60083 18.1244 5.52227 17.9389 5.51892 17.7446C5.51556 17.5503 5.58766 17.3623 5.72007 17.22L10.9401 12L5.72007 6.78C5.57962 6.63937 5.50073 6.44875 5.50073 6.25C5.50073 6.05125 5.57962 5.86062 5.72007 5.72Z" fill="#191919"/>
</svg>
