<svg width="24" height="24" viewBox="0 0 24 24" fill="none" xmlns="http://www.w3.org/2000/svg">
<path d="M15.2798 5.22001C15.4203 5.36064 15.4992 5.55126 15.4992 5.75001C15.4992 5.94876 15.4203 6.13939 15.2798 6.28001L9.55983 12L15.2798 17.72C15.3786 17.8117 15.4507 17.9283 15.4887 18.0575C15.5268 18.1868 15.5292 18.3239 15.4958 18.4544C15.4625 18.5849 15.3945 18.704 15.2991 18.7992C15.2037 18.8943 15.0844 18.962 14.9538 18.995C14.8235 19.0284 14.6865 19.0261 14.5573 18.9883C14.4282 18.9504 14.3116 18.8785 14.2198 18.78L7.96983 12.53C7.82938 12.3894 7.75049 12.1988 7.75049 12C7.75049 11.8013 7.82938 11.6106 7.96983 11.47L14.2198 5.22001C14.3605 5.07956 14.5511 5.00067 14.7498 5.00067C14.9486 5.00067 15.1392 5.07956 15.2798 5.22001Z" fill="#191919"/>
</svg>
