<svg width="88" height="89" viewBox="0 0 88 89" fill="none" xmlns="http://www.w3.org/2000/svg">
<path d="M33.0225 11.5465C49.7878 11.6307 54.9669 26.2447 55.4609 33.5412V43.3259C55.4609 43.7558 55.7597 44.1311 56.1794 44.224L57.7076 44.5622C57.7726 44.5766 57.8391 44.5849 57.9057 44.581C58.434 44.5499 58.9198 44.2744 59.2152 43.8331L63.3961 37.588C63.7101 37.119 64.2392 36.8372 64.8058 36.8372H86.3036C87.6708 36.8372 88.4744 38.3651 87.6945 39.4816L62.3871 75.7084C62.0706 76.1614 61.5511 76.4316 60.9963 76.4316H39.485C38.1162 76.4316 37.3129 74.9007 38.0961 73.7844L49.076 58.1339C49.7643 57.1529 49.128 55.8519 48.0346 55.551C47.7439 55.4711 47.4564 55.6354 47.2853 55.8837L33.2957 76.1868C33.1247 76.4351 32.8424 76.5833 32.5409 76.5833H13.6535H10.2439C9.52036 76.5833 9.08202 75.7844 9.47072 75.1742L28.683 45.0121C32.6626 40.129 29.9884 36.4528 28.1538 35.225C26.3192 34.2779 22.0573 33.3307 19.6865 37.1193C17.5063 40.6031 19.2164 43.464 20.603 44.72C20.8175 44.9143 20.9566 45.1825 20.9566 45.472V49.673C20.9566 50.1792 20.5465 50.5897 20.0403 50.5897H12.8068C10.3461 50.5897 9.07727 48.3513 8.71162 47.127C8.68884 47.0507 8.67899 46.9712 8.67899 46.8916V37.1193C8.67899 35.8896 7.51145 35.2445 6.52266 34.9641C6.07177 34.8362 5.71543 34.4485 5.71543 33.9798V26.4505C5.71543 26.2065 5.61813 25.9726 5.44509 25.8005L1.57568 21.9532C0.995671 21.3765 1.40408 20.3865 2.22201 20.3865H7.76232C8.26859 20.3865 8.67899 19.9761 8.67899 19.4698V12.4351C8.67899 11.9399 9.06956 11.5365 9.5647 11.5302C11.978 11.4997 18.7753 11.4749 33.0225 11.5465Z" fill="white"/>
</svg>
